<svg width="148" height="141" viewBox="0 0 148 141" fill="none" xmlns="http://www.w3.org/2000/svg">
<path d="M20.3016 27.5853L19.2168 2.63455C22.4712 3.25445 26.3455 3.40942 35.1791 3.40942C45.8723 3.40942 59.9749 2.78953 67.2586 1.85968C70.3581 1.54974 71.5979 1.08481 73.6126 0L90.3498 14.2576C88.8 16.4272 88.3351 17.3571 86.6304 21.6963C85.2356 25.1058 78.8817 44.7874 76.4021 53.156C87.8702 55.4806 94.2241 57.1853 102.903 60.7497C103.987 53.156 104.142 49.1267 104.142 35.334C104.142 31.7696 103.987 29.755 103.523 26.5005L130.488 27.4304C129.713 31.1497 129.558 32.6995 129.403 38.7435C128.783 53.311 128.163 60.2848 126.614 70.823C137.307 76.2471 137.307 76.2471 142.731 79.1916C145.52 80.7414 146.14 81.0513 148 81.6712L139.012 110.651C134.672 106.777 128.628 102.593 119.795 97.6335C112.046 116.075 99.1832 129.558 79.6565 140.251C73.1476 131.573 68.1885 126.304 60.2848 120.105C71.7529 114.681 77.022 111.271 83.066 105.537C88.955 99.8032 92.8293 94.2241 96.5487 85.8555C86.6304 81.3613 80.2764 79.3466 69.2733 77.022C62.9194 95.9288 57.8052 108.017 53.311 115.301C47.267 125.064 39.0534 130.178 29.6 130.178C22.3162 130.178 14.8775 126.924 9.4534 121.345C3.25445 114.991 0 106.157 0 95.9288C0 80.7414 7.28377 67.5686 19.9916 59.355C28.2052 54.0859 36.8838 51.7613 50.6764 50.9864C53.466 41.8429 55.7906 33.9393 57.9602 25.1058C51.1414 25.7257 42.6178 26.1906 32.2346 26.6555C26.6555 26.8105 24.7958 26.9654 20.3016 27.5853ZM43.8576 74.6974C36.5738 75.9372 32.2346 78.2618 28.3602 83.2209C25.4157 86.6304 24.0209 90.6597 24.0209 94.999C24.0209 99.8031 26.3456 103.368 29.2901 103.368C32.8545 103.368 36.8838 95.3089 43.8576 74.6974Z" fill="#0058A0"/>
</svg>
