<?xml version="1.0" standalone="no"?>
<!DOCTYPE svg PUBLIC "-//W3C//DTD SVG 20010904//EN"
 "http://www.w3.org/TR/2001/REC-SVG-20010904/DTD/svg10.dtd">
<svg version="1.0" xmlns="http://www.w3.org/2000/svg"
 width="592.000000pt" height="592.000000pt" viewBox="0 0 592.000000 592.000000"
 preserveAspectRatio="xMidYMid meet">
<metadata>
Created by potrace 1.14, written by Peter Selinger 2001-2017
</metadata>
<g transform="translate(0.000000,592.000000) scale(0.100000,-0.100000)"
fill="#000000" stroke="none">
<path d="M2911 5764 c-30 -22 -138 -50 -221 -58 -35 -4 -78 -9 -94 -11 -17 -3
-62 -7 -101 -9 -38 -3 -104 -8 -145 -11 -461 -35 -1320 -40 -1533 -9 l-48 7 5
-137 c3 -75 8 -185 11 -244 3 -59 8 -165 11 -237 3 -71 7 -161 9 -200 1 -38 3
-94 4 -123 l1 -54 63 7 c34 3 76 8 92 10 39 5 188 14 340 20 273 11 397 18
600 31 61 4 143 8 182 8 40 1 73 3 73 6 0 3 29 7 65 8 36 1 69 3 73 3 18 3 20
-3 11 -33 -5 -18 -14 -51 -19 -73 -13 -57 -61 -235 -114 -420 -25 -88 -48
-169 -51 -180 -3 -11 -14 -49 -26 -85 -11 -36 -22 -72 -24 -80 -2 -8 -8 -27
-14 -42 -6 -16 -8 -28 -5 -28 2 0 0 -9 -6 -21 -6 -11 -13 -30 -15 -41 -3 -11
-6 -22 -8 -24 -3 -3 -69 -9 -202 -19 -49 -4 -113 -12 -230 -31 -141 -22 -161
-26 -210 -40 -5 -2 -22 -5 -36 -8 -204 -43 -518 -201 -712 -358 -79 -64 -236
-226 -290 -298 -26 -36 -51 -69 -55 -75 -20 -25 -85 -139 -117 -204 -78 -157
-136 -353 -162 -541 -9 -63 -9 -385 0 -445 3 -22 9 -62 12 -90 4 -27 11 -58
16 -67 5 -9 9 -25 9 -36 0 -67 104 -305 189 -432 60 -91 269 -310 295 -310 3
0 31 -17 63 -38 101 -68 272 -139 379 -158 189 -34 372 -23 528 33 80 29 224
101 246 123 3 3 23 18 45 34 50 37 192 178 231 231 16 22 35 46 41 53 7 7 13
17 13 21 0 4 8 16 18 27 43 50 173 297 279 534 12 25 42 97 67 160 26 63 50
124 55 135 25 57 91 234 91 244 0 7 5 22 12 34 7 12 13 27 14 32 2 6 15 42 29
80 15 39 28 77 30 85 2 8 24 73 49 144 25 71 46 131 46 133 0 2 8 2 18 -1 9
-3 28 -7 42 -10 85 -17 179 -40 275 -66 61 -17 117 -32 126 -34 52 -13 279
-90 314 -106 11 -5 45 -19 75 -31 30 -12 73 -29 95 -39 22 -10 64 -28 93 -40
28 -12 52 -25 52 -27 0 -18 -149 -302 -192 -367 -44 -65 -152 -211 -180 -243
-35 -41 -258 -261 -280 -278 -7 -5 -31 -25 -53 -43 -53 -43 -49 -40 -140 -104
-44 -30 -106 -71 -138 -89 -33 -19 -73 -42 -90 -53 -52 -31 -320 -166 -330
-166 -5 0 -16 -8 -25 -17 -13 -12 -14 -17 -4 -21 7 -2 21 -12 30 -21 9 -9 44
-39 77 -67 168 -138 365 -339 500 -510 17 -20 36 -43 43 -50 6 -7 12 -16 12
-21 0 -5 9 -15 20 -23 11 -8 20 -18 20 -23 0 -5 6 -14 13 -22 6 -7 20 -22 29
-34 l18 -21 72 43 c40 24 80 46 88 50 22 10 266 169 287 187 10 9 39 30 63 47
25 17 55 39 67 49 12 11 36 30 54 44 18 14 38 31 45 38 7 6 14 12 17 12 7 0
139 122 222 206 109 110 150 156 220 244 33 41 62 77 65 80 3 3 21 28 40 55
19 28 38 52 42 53 4 2 8 8 8 13 0 5 18 35 40 66 22 32 40 62 40 67 0 5 6 17
14 25 31 34 196 357 196 382 0 6 7 17 15 26 14 13 23 11 88 -28 170 -101 192
-114 197 -119 10 -10 45 -31 63 -36 9 -4 17 -10 17 -14 0 -4 14 -13 30 -20 17
-7 30 -16 30 -21 0 -5 5 -9 10 -9 6 0 16 -5 23 -10 7 -6 66 -50 132 -99 66
-49 133 -101 149 -115 16 -14 31 -26 33 -26 5 0 24 49 29 75 2 11 8 31 13 45
6 14 20 59 32 100 13 41 23 77 24 80 1 3 4 12 8 20 5 14 48 154 53 175 1 6 17
55 34 110 18 55 36 116 42 135 5 19 18 60 28 90 10 30 23 71 28 90 6 19 24 79
40 133 l31 99 -37 15 c-49 19 -211 102 -222 113 -6 6 -172 92 -413 215 l-179
90 7 66 c3 37 8 77 11 90 3 13 7 42 9 64 9 79 16 141 21 176 8 60 13 113 19
206 3 48 8 104 10 123 4 42 16 240 20 325 19 479 25 562 44 634 7 23 10 45 7
48 -3 3 -38 7 -78 9 -155 5 -429 15 -573 20 -82 2 -212 6 -287 9 l-137 4 4
-32 c2 -18 7 -57 11 -87 15 -114 6 -854 -12 -1015 -4 -33 -8 -71 -9 -85 -6
-62 -17 -136 -21 -142 -3 -4 -26 2 -52 13 -48 21 -285 107 -312 114 -8 2 -15
4 -15 5 0 1 -9 3 -19 5 -10 2 -40 10 -65 19 -25 8 -57 17 -71 20 -14 3 -43 10
-65 16 -39 11 -85 23 -135 34 -46 11 -167 37 -181 40 -8 1 -42 9 -77 16 l-63
13 7 31 c4 17 17 65 31 106 13 41 32 102 43 135 137 441 287 892 342 1030 42
105 54 130 102 208 16 27 25 52 20 56 -5 4 -43 36 -84 71 -41 35 -81 69 -88
76 -7 7 -39 34 -72 60 -33 26 -60 51 -60 55 0 5 -6 9 -14 9 -8 0 -16 4 -18 9
-2 6 -195 172 -315 271 -16 13 -14 13 -42 -6z m-1161 -2987 c0 -8 -3 -17 -7
-21 -4 -3 -8 -12 -9 -19 -12 -60 -224 -627 -243 -652 -5 -5 -12 -25 -16 -42
-3 -18 -11 -33 -16 -33 -5 0 -9 -5 -9 -11 0 -18 -78 -168 -119 -228 -42 -61
-82 -100 -121 -117 -28 -12 -78 -8 -97 8 -7 6 -13 7 -13 2 0 -20 -72 64 -95
111 -33 69 -44 129 -40 239 3 94 18 170 42 218 7 15 13 30 13 33 -1 10 61 123
78 142 10 10 33 38 52 63 99 127 272 242 420 280 25 6 52 14 60 17 8 3 31 8
50 10 19 2 36 6 39 9 10 9 31 3 31 -9z"/>
</g>
</svg>
